<svg xmlns="http://www.w3.org/2000/svg" width="32.021" height="50.039" viewBox="0 0 32.021 50.039">
  <g id="certified-teacher" transform="translate(-206.638 -56)">
    <path id="Path_1729" data-name="Path 1729" d="M289.647,308.483l.832.181a1.1,1.1,0,0,0,1.276-.738l.263-.813a1.08,1.08,0,0,1,.707-.707l.813-.263a1.1,1.1,0,0,0,.738-1.276l-.181-.832a1.1,1.1,0,0,1,.257-.963l.569-.632a1.1,1.1,0,0,0,0-1.47l-.569-.632a1.085,1.085,0,0,1-.257-.963l.181-.832a1.1,1.1,0,0,0-.738-1.276l-.813-.263a1.08,1.08,0,0,1-.707-.707l-.263-.813a1.1,1.1,0,0,0-1.276-.738l-.832.181a1.1,1.1,0,0,1-.963-.257l-.632-.569a1.1,1.1,0,0,0-1.47,0l-.632.569a1.085,1.085,0,0,1-.963.257l-.832-.181a1.1,1.1,0,0,0-1.276.738l-.263.813a1.08,1.08,0,0,1-.707.707l-.813.263a1.1,1.1,0,0,0-.738,1.276l.181.832a1.1,1.1,0,0,1-.257.963l-.569.632a1.1,1.1,0,0,0,0,1.47l.569.632a1.085,1.085,0,0,1,.257.963l-.181.832a1.1,1.1,0,0,0,.738,1.276l.813.263a1.08,1.08,0,0,1,.707.707l.263.813a1.1,1.1,0,0,0,1.276.738l.832-.181a1.1,1.1,0,0,1,.963.257l.632.569a1.1,1.1,0,0,0,1.47,0l.632-.569A1.1,1.1,0,0,1,289.647,308.483Zm-2.333-.845a5.935,5.935,0,1,1,4.2-1.738A5.915,5.915,0,0,1,287.314,307.639Z" transform="translate(-64.665 -211.263)" fill="#fff"/>
    <path id="Path_1730" data-name="Path 1730" d="M285.84,425.774a.274.274,0,0,0-.181-.069.178.178,0,0,0-.056.006l-.832.181a1.752,1.752,0,0,1-.407.044,1.918,1.918,0,0,1-1.72-1.063l-2.7,7.424,2.7-1.363,1.188,2.783,2.67-7.342c-.013-.006-.019-.019-.031-.025Z" transform="translate(-65.118 -327.678)" fill="#fff"/>
    <path id="Path_1731" data-name="Path 1731" d="M224.424,56H208.871a2.192,2.192,0,0,0-2.233,2.145V96.456a2.272,2.272,0,0,0,2.233,2.239h7.355l.675-1.851h-6.986a1.415,1.415,0,0,1-1.426-1.432V59.182a1.453,1.453,0,0,1,1.426-1.476h14.516V67.988a2.291,2.291,0,0,0,2.233,2.245h10.288V95.412a1.463,1.463,0,0,1-1.482,1.432H228.4l.675,1.851h7.442a2.2,2.2,0,0,0,2.145-2.239V70.17Zm2.7,12.527a1.039,1.039,0,0,1-.988-.994v-7.48l8.468,8.468h-7.479Z" fill="#fff"/>
    <path id="Path_1732" data-name="Path 1732" d="M363.443,426.011a2.29,2.29,0,0,1-.407-.056l-.832-.188a.186.186,0,0,0-.056-.013.271.271,0,0,0-.181.069l-.632.569a.132.132,0,0,1-.031.025l2.671,7.342,1.188-2.783,2.7,1.363-2.7-7.411a1.93,1.93,0,0,1-1.72,1.082Z" transform="translate(-137.393 -327.727)" fill="#fff"/>
    <path id="Path_1733" data-name="Path 1733" d="M318.595,329.254l-3.121-.45-1.395-2.827-1.395,2.827-3.121.45,2.258,2.2-.532,3.108,2.789-1.47,2.789,1.47-.532-3.108Z" transform="translate(-91.431 -239.826)" fill="#fff"/>
  </g>
</svg>
