<svg xmlns="http://www.w3.org/2000/svg" width="46.451" height="50.108" viewBox="0 0 46.451 50.108">
  <g id="experts-teacher" transform="translate(-102.8 -13.336)">
    <path id="Path_1746" data-name="Path 1746" d="M132.806,46.49a29.557,29.557,0,0,0-5.212-.815c2.5-.955,4.324-3.909,4.324-7.4,0-3.873-2.323-6.278-6.064-6.278s-6.064,2.405-6.064,6.278c0,3.481,1.818,6.43,4.307,7.392a27.656,27.656,0,0,0-5.2.822c-3.586.922-5.561,2.878-5.561,5.509v10.66a.783.783,0,0,0,.783.783H137.59a.783.783,0,0,0,.783-.783V52c0-2.625-2.029-4.633-5.566-5.511Zm-11.449-8.213c0-2.995,1.639-4.712,4.5-4.712s4.5,1.718,4.5,4.712c0,3.4-2.018,6.158-4.5,6.158S121.357,41.673,121.357,38.278Zm15.451,23.6h-3.767V54.452a.783.783,0,0,0-1.566,0v7.427H120.236V54.452a.783.783,0,1,0-1.566,0v7.427H114.9V52c0-2.368,2.384-3.478,4.385-3.993a26.552,26.552,0,0,1,13.141,0c1.635.406,4.378,1.463,4.378,3.991v9.877ZM117.515,20.6l4.527,3.276-1.737,5.311a.783.783,0,0,0,1.206.876l4.514-3.293,4.515,3.293a.783.783,0,0,0,1.206-.876l-1.737-5.311,4.527-3.276a.783.783,0,0,0-.459-1.417h0l-5.588.011-1.717-5.318a.783.783,0,0,0-1.491,0L123.563,19.2l-5.588-.011h0a.783.783,0,0,0-.459,1.417Zm6.617.16h0a.783.783,0,0,0,.745-.542l1.147-3.553,1.147,3.553a.783.783,0,0,0,.745.542h0l3.734-.007-3.025,2.189a.783.783,0,0,0-.285.878l1.161,3.549-3.016-2.2a.784.784,0,0,0-.923,0l-3.016,2.2,1.161-3.549a.783.783,0,0,0-.285-.878L120.4,20.756Zm25.08,3.359a.782.782,0,0,0-.745-.541h0L144,23.59l-1.371-4.247a.783.783,0,0,0-1.491,0l-1.371,4.247-4.463-.009h0A.783.783,0,0,0,134.847,25l3.616,2.616-1.387,4.242a.783.783,0,0,0,1.206.876l3.605-2.63,3.605,2.63a.783.783,0,0,0,1.206-.876l-1.387-4.242L148.926,25a.781.781,0,0,0,.286-.876Zm-5.282,2.558a.783.783,0,0,0-.285.878l.811,2.479L142.348,28.5a.783.783,0,0,0-.923,0l-2.107,1.537.811-2.48a.783.783,0,0,0-.285-.878l-2.113-1.529,2.608,0h0a.783.783,0,0,0,.745-.542l.8-2.482.8,2.482a.783.783,0,0,0,.745.542h0l2.608,0Zm-29.7,6.2a.783.783,0,0,0,.744-1.027l-1.387-4.242L117.2,25a.783.783,0,0,0-.459-1.417h0l-4.463.009-1.371-4.247a.783.783,0,0,0-1.491,0l-1.371,4.247-4.463-.008h0A.783.783,0,0,0,103.124,25l3.616,2.616-1.387,4.242a.783.783,0,0,0,1.206.876l3.605-2.63,3.605,2.63a.783.783,0,0,0,.462.15ZM110.625,28.5a.783.783,0,0,0-.923,0l-2.107,1.537.811-2.48a.782.782,0,0,0-.285-.878l-2.113-1.529,2.608,0h0a.783.783,0,0,0,.745-.542l.8-2.482.8,2.482a.783.783,0,0,0,.745.542h0l2.608,0-2.113,1.529a.783.783,0,0,0-.285.878l.811,2.479Z" transform="translate(0 0)" fill="#fff"/>
  </g>
</svg>
