<svg xmlns="http://www.w3.org/2000/svg" width="50.442" height="50.398" viewBox="0 0 50.442 50.398">
  <g id="training-courses" transform="translate(-78.677 -8.71)">
    <path id="Path_1714" data-name="Path 1714" d="M288.75,14.4a5.69,5.69,0,0,0,2.438,4.666v.211a.813.813,0,0,0,.813.813v2.438a.813.813,0,0,0,.813.813h3.251a.813.813,0,0,0,.813-.813V20.094a.813.813,0,0,0,.813-.813V19.07A5.69,5.69,0,1,0,288.75,14.4Zm6.5,7.315h-1.626V20.094h1.626Zm-.813-11.38a4.064,4.064,0,0,1,2.032,7.584.812.812,0,0,0-.406.545h-3.251a.813.813,0,0,0-.39-.545,4.064,4.064,0,0,1,2.016-7.584Z" transform="translate(-190.559)" fill="#fff"/>
    <path id="Path_1715" data-name="Path 1715" d="M326.189,48.628a2.438,2.438,0,1,0-1.724-.714A2.439,2.439,0,0,0,326.189,48.628Zm0-3.251a.813.813,0,1,1-.813.813A.812.812,0,0,1,326.189,45.377Z" transform="translate(-222.308 -31.786)" fill="#fff"/>
    <path id="Path_1716" data-name="Path 1716" d="M437.5,61.25h3.251v1.626H437.5Z" transform="translate(-325.491 -47.659)" fill="#fff"/>
    <path id="Path_1717" data-name="Path 1717" d="M424.81,11.317l3.249-1.625.727,1.454-3.249,1.625Z" transform="translate(-313.979 -0.89)" fill="#fff"/>
    <path id="Path_1718" data-name="Path 1718" d="M424.81,98.662l.727-1.454,3.249,1.625-.727,1.454Z" transform="translate(-313.979 -80.277)" fill="#fff"/>
    <path id="Path_1719" data-name="Path 1719" d="M227.5,61.25h3.251v1.626H227.5Z" transform="translate(-134.999 -47.659)" fill="#fff"/>
    <path id="Path_1720" data-name="Path 1720" d="M232.36,11.107l.727-1.454,3.249,1.625-.727,1.454Z" transform="translate(-139.407 -0.855)" fill="#fff"/>
    <path id="Path_1721" data-name="Path 1721" d="M232.28,98.769l3.249-1.625.727,1.454-3.249,1.625Z" transform="translate(-139.334 -80.219)" fill="#fff"/>
    <path id="Path_1722" data-name="Path 1722" d="M126.64,122.876a2.439,2.439,0,0,0-2.292,1.626h-3.4a16.99,16.99,0,0,0-4.4-10.673l2.438-2.438a2.435,2.435,0,0,0,2.772-3.918,2.5,2.5,0,0,0-3.447,0,2.439,2.439,0,0,0-.471,2.772l-2.438,2.438a17.126,17.126,0,0,0-6.4-3.625l-.488,1.552a15.444,15.444,0,0,1,.3,29.335h-1.683v-.894l.3-.089a4.065,4.065,0,0,0,2.951-3.894v-.951a2.439,2.439,0,0,0,1.252-3.593l1.065-4.219h0a4.008,4.008,0,0,0-.691-3.43,4.064,4.064,0,0,0-3.251-1.626.865.865,0,0,0-.2,0l-2.227.569c-.333-2.69-1.788-3.007-2.446-3.007a3.251,3.251,0,0,0-2.593,1.26,2.87,2.87,0,0,1-2.243,1.179,4.064,4.064,0,0,0-3.251,1.585,4.008,4.008,0,0,0-.732,3.471l1.065,4.219h0a2.439,2.439,0,0,0,1.252,3.593v.951a4.064,4.064,0,0,0,2.951,3.91l.3.089v.878H98.947a15.444,15.444,0,0,1,.3-29.367l-.488-1.52a17.122,17.122,0,0,0-6.364,3.65l-2.438-2.438a2.439,2.439,0,0,0-.471-2.772,2.5,2.5,0,0,0-3.447,0,2.438,2.438,0,0,0,2.772,3.918l2.438,2.438A16.988,16.988,0,0,0,86.812,124.5h-3.4a2.439,2.439,0,1,0,0,1.625h3.4a16.987,16.987,0,0,0,4.406,10.664l-2.438,2.438a2.5,2.5,0,0,0-2.764.463,2.454,2.454,0,1,0,3.967.666l2.438-2.438a17.2,17.2,0,0,0,3.414,2.438,7.317,7.317,0,0,0-4.958,6.9.813.813,0,0,0,.813.813h24.385a.813.813,0,0,0,.813-.813,7.316,7.316,0,0,0-4.934-6.909,17.217,17.217,0,0,0,3.414-2.438l2.438,2.438a2.434,2.434,0,1,0,3.918-.675,2.5,2.5,0,0,0-2.764-.463l-2.438-2.438a16.987,16.987,0,0,0,4.43-10.648h3.43a2.439,2.439,0,1,0,2.26-3.251ZM119.4,108.643a.813.813,0,1,1,0,1.15.812.812,0,0,1,0-1.15ZM88.364,109.8a.812.812,0,1,1,.241-.577A.813.813,0,0,1,88.364,109.8Zm-7.242,16.33a.813.813,0,1,1,.575-.238A.812.812,0,0,1,81.122,126.127Zm7.242,15.858a.812.812,0,1,1,.237-.579.813.813,0,0,1-.237.579ZM96.639,125.9a2.365,2.365,0,0,1,.439-2.065,2.487,2.487,0,0,1,2.008-.959,4.487,4.487,0,0,0,3.487-1.8,1.626,1.626,0,0,1,1.309-.634c.569,0,.813,1.227.813,2.438a.813.813,0,0,0,1.016.813l3.089-.813a2.488,2.488,0,0,1,1.87.959,2.382,2.382,0,0,1,.439,2.073l-.813,3.081a4.065,4.065,0,0,0-3.975-3.674h-4.877a4.064,4.064,0,0,0-4.024,3.674ZM99,135.068v-1.626a.813.813,0,0,0-.813-.813.813.813,0,1,1,0-1.626.813.813,0,0,0,.813-.813v-.813a2.438,2.438,0,0,1,2.438-2.438h4.877a2.438,2.438,0,0,1,2.438,2.438v.813a.813.813,0,0,0,.813.813.813.813,0,1,1,0,1.626.813.813,0,0,0-.813.813v1.626a2.439,2.439,0,0,1-1.772,2.349l-3.105.9-3.105-.886A2.439,2.439,0,0,1,99,135.068Zm6.5,4.463v1.227a1.626,1.626,0,1,1-3.251,0v-1.244l1.406.4h0a.754.754,0,0,0,.439,0Zm9.7,6.917H92.559a5.69,5.69,0,0,1,5.633-4.877h2.544a3.251,3.251,0,0,0,6.291,0h2.544a5.69,5.69,0,0,1,5.633,4.877Zm4.194-5.617h0a.812.812,0,1,1-.241.577.813.813,0,0,1,.241-.577Zm7.243-14.7a.813.813,0,1,1,.575-.238A.812.812,0,0,1,126.64,126.127Z" transform="translate(0 -88.964)" fill="#fff"/>
  </g>
</svg>
