<svg xmlns="http://www.w3.org/2000/svg" width="50.018" height="45.906" viewBox="0 0 50.018 45.906">
  <g id="video-courses" transform="translate(-75.196 -27.647)">
    <path id="Path_1734" data-name="Path 1734" d="M108.182,63.277h39.8a2.3,2.3,0,0,0,2.308-2.324V29.908a2.3,2.3,0,0,0-2.308-2.261h-39.8a2.3,2.3,0,0,0-2.308,2.3v31a2.309,2.309,0,0,0,2.308,2.324Zm-.8-33.328a.8.8,0,0,1,.8-.836h39.8a.8.8,0,0,1,.8.8V60.953a.8.8,0,0,1-.8.8h-39.8a.8.8,0,0,1-.8-.8Z" transform="translate(-27.887)" fill="#fff"/>
    <path id="Path_1735" data-name="Path 1735" d="M124.617,434.618a2.555,2.555,0,0,0-1.815-.708h-15.84a.794.794,0,0,0-.581.27l-2.858,3.24H96.869l-2.858-3.232a.8.8,0,0,0-.581-.271H77.637a2.523,2.523,0,0,0-1.862.7,2.253,2.253,0,0,0-.549,1.871c0,.263.517,6.368,13.063,6.368h23.848c12.537,0,13.038-6.113,13.054-6.368a2.3,2.3,0,0,0-.573-1.871Zm-1.011,1.767c0,.048-.549,4.919-11.494,4.919H88.256c-10.953,0-11.5-4.872-11.5-4.943a.852.852,0,0,1,.119-.669,1.035,1.035,0,0,1,.693-.215H93.08l2.858,3.232h0a.8.8,0,0,0,.581.263h7.355a.8.8,0,0,0,.589-.263l2.9-3.232h15.522a.955.955,0,0,1,.637.215.8.8,0,0,1,.087.693Z" transform="translate(0 -369.304)" fill="#fff"/>
    <path id="Path_1736" data-name="Path 1736" d="M443.142,465.546l-1.465,1.775h0a.732.732,0,0,0,.565,1.21.715.715,0,0,0,.573-.27l1.5-1.767a.74.74,0,0,0-1.138-.947Z" transform="translate(-332.981 -397.82)" fill="#fff"/>
    <path id="Path_1737" data-name="Path 1737" d="M479.1,465.546l-1.465,1.775h0a.732.732,0,0,0,.565,1.21.716.716,0,0,0,.573-.27l1.465-1.767h0a.74.74,0,0,0-1.138-.947Z" transform="translate(-365.671 -397.82)" fill="#fff"/>
    <path id="Path_1738" data-name="Path 1738" d="M515.072,465.546l-1.465,1.775a.732.732,0,0,0,.565,1.21.716.716,0,0,0,.573-.27l1.465-1.767a.74.74,0,0,0-1.138-.947Z" transform="translate(-398.367 -397.82)" fill="#fff"/>
    <path id="Path_1739" data-name="Path 1739" d="M227.371,465.712a.8.8,0,0,0-1.051-.1.74.74,0,0,0-.1,1.043l1.465,1.767a.741.741,0,1,0,1.146-.939Z" transform="translate(-137.134 -397.986)" fill="#fff"/>
    <path id="Path_1740" data-name="Path 1740" d="M191.4,465.712a.8.8,0,0,0-1.051-.1.74.74,0,0,0-.1,1.043l1.465,1.767h0a.741.741,0,0,0,1.146-.939Z" transform="translate(-104.439 -397.986)" fill="#fff"/>
    <path id="Path_1741" data-name="Path 1741" d="M155.842,465.879a.8.8,0,0,0-1.011-.1.74.74,0,0,0-.1,1.043l1.465,1.767a.741.741,0,1,0,1.146-.939Z" transform="translate(-72.148 -398.153)" fill="#fff"/>
    <path id="Path_1742" data-name="Path 1742" d="M160.566,102.044h3.853a.8.8,0,1,0,0-1.592h-3.072V81.675h1.592V97.921a.8.8,0,0,0,.8.732,29.607,29.607,0,0,1,12.974,1.966h.055a.613.613,0,0,0,.51,0h.056A29.821,29.821,0,0,1,190.3,98.654a.8.8,0,0,0,.8-.732V81.675h1.592v18.809h-3.184a.8.8,0,0,0,0,1.592h3.932a.8.8,0,0,0,.8-.8V80.894a.8.8,0,0,0-.8-.8h-2.388V78.491c0-.048-.056-.087-.08-.127h0a.424.424,0,0,0-.087-.119.653.653,0,0,0-.112-.1l-.127-.08a.9.9,0,0,0-.151,0,.634.634,0,0,0-.127,0,31.67,31.67,0,0,0-13.293,1.895,31.643,31.643,0,0,0-13.428-1.982.585.585,0,0,0-.127,0,.828.828,0,0,0-.151,0l-.127.08a1.194,1.194,0,0,0-.119.1.608.608,0,0,0-.08.119,1.377,1.377,0,0,0-.08.127c-.024.048,0,.1,0,.159v1.457h-2.4a.8.8,0,0,0-.8.8v20.45a.8.8,0,0,0,.8.78Zm15.714-20.7v1a.8.8,0,1,0,1.592,0v-1a30.4,30.4,0,0,1,11.749-1.767v1.3a.208.208,0,0,0,0,.056.114.114,0,0,0,0,.056V97.14a32.568,32.568,0,0,0-11.8,1.688v-.947a.8.8,0,0,0-1.592,0v.931a32.574,32.574,0,0,0-11.8-1.688V79.572a30.721,30.721,0,0,1,11.845,1.767Z" transform="translate(-76.88 -45.685)" fill="#fff"/>
    <path id="Path_1743" data-name="Path 1743" d="M250.9,326.222h-.128a24.5,24.5,0,0,0-9.974,2.141,24.454,24.454,0,0,0-10.013-2.165h-.119a.8.8,0,1,0,0,1.592.61.61,0,0,1,.119,0,22.962,22.962,0,0,1,9.56,2.165.651.651,0,0,0,.231.1h.342a.65.65,0,0,0,.231-.1,22.8,22.8,0,0,1,9.6-2.141h.112a.8.8,0,1,0,0-1.592Z" transform="translate(-140.599 -271.391)" fill="#fff"/>
    <path id="Path_1744" data-name="Path 1744" d="M289.346,158.528a6.026,6.026,0,1,0-4.256-1.767,6.026,6.026,0,0,0,4.256,1.767Zm0-10.643a4.633,4.633,0,1,1-3.26,1.357,4.624,4.624,0,0,1,3.26-1.357Z" transform="translate(-189.198 -108.02)" fill="#fff"/>
    <path id="Path_1745" data-name="Path 1745" d="M329.628,184.367a.682.682,0,0,0,.326.08.71.71,0,0,0,.4-.119l3.638-2.484a.685.685,0,0,0,.342-.557.692.692,0,0,0-.311-.581l-3.669-2.436a.7.7,0,0,0-.716-.04.718.718,0,0,0-.374.621v4.9a.693.693,0,0,0,.366.621Zm2.706-3.072-1.679,1.13v-2.261Z" transform="translate(-230.953 -136.811)" fill="#fff"/>
  </g>
</svg>
